<svg width="334" height="334" viewBox="0 0 334 334" fill="none" xmlns="http://www.w3.org/2000/svg">
<g clip-path="url(#clip0_1_22)">
<path d="M217.002 108.85L252.609 13.9395H270.82L235.176 108.85H217.002ZM205.64 116.944C205.64 116.944 207.663 111.497 207.663 111.496C207.66 111.352 246.188 8.8425 246.227 8.68598C246.227 8.64727 246.265 8.60831 246.265 8.56936L247.316 5.84535H224.435C214.902 31.3503 192.118 92.1208 182.798 116.944H205.64ZM83.8391 194.889L108.783 186.834L97.7316 152.512L83.8391 194.889ZM58.0007 265.089C55.4318 265.181 53.4291 262.386 54.3041 259.992C66.401 223.109 86.5496 161.522 98.6265 124.727H54.1872L7.29586 259.291C1.03031 277.191 7.52957 297.232 23.1341 308.05L52.1247 328.169L104.775 313.226L92.1672 265.089C92.1672 265.089 58.0007 265.089 58.0007 265.089ZM216.146 5.84535C216.146 5.84535 57.3395 5.84535 57.3404 5.84582C21.4705 4.98722 -6.6261 42.1672 3.91085 76.4351H189.647L216.146 5.84535ZM6.71253 84.2179C15.585 103.986 35.2747 116.944 57.3395 116.944H174.47L186.728 84.2179H6.71253ZM159.331 179.657C157.18 179.657 155.439 181.397 155.439 183.548V199.691C155.439 201.842 157.18 203.582 159.331 203.582C161.482 203.582 163.222 201.842 163.222 199.691V187.439H175.478C180.561 187.422 180.572 179.675 175.478 179.657H159.331ZM175.478 278.051H163.222V265.799C163.202 260.711 155.459 260.709 155.439 265.799C155.439 265.799 155.439 281.942 155.439 281.942C155.439 284.093 157.18 285.834 159.331 285.834H175.478C180.564 285.814 180.57 278.07 175.478 278.051ZM328.439 261.908C326.288 261.908 324.547 263.648 324.547 265.799V278.051H312.292C307.209 278.068 307.198 285.815 312.292 285.834H328.439C330.59 285.834 332.33 284.093 332.33 281.942V265.799C332.33 263.648 330.59 261.908 328.439 261.908ZM328.439 179.657H312.292C307.204 179.677 307.201 187.42 312.292 187.439H324.547V199.691C324.567 204.777 332.31 204.783 332.33 199.691C332.33 199.691 332.33 183.548 332.33 183.548C332.33 181.397 330.59 179.657 328.439 179.657ZM181.825 204.773H305.96V260.731H181.825V204.773ZM285.452 247.695C285.549 252.819 293.167 252.797 293.235 247.695V217.809C293.163 212.691 285.545 212.701 285.452 217.809C285.452 217.809 285.452 247.695 285.452 247.695ZM267.279 247.695C267.377 252.814 274.967 252.798 275.062 247.695V217.809C274.964 212.69 267.374 212.706 267.279 217.809C267.279 217.809 267.279 247.695 267.279 247.695ZM249.106 247.695C249.177 252.813 256.796 252.803 256.889 247.695V217.809C256.792 212.685 249.174 212.707 249.106 217.809C249.106 217.809 249.106 247.695 249.106 247.695ZM230.895 247.695C230.993 252.814 238.582 252.798 238.677 247.695V217.809C238.58 212.69 230.99 212.706 230.895 217.809C230.895 217.809 230.895 247.695 230.895 247.695ZM212.722 247.695C212.82 252.814 220.41 252.798 220.505 247.695V217.809C220.407 212.69 212.817 212.706 212.722 217.809C212.722 217.809 212.722 247.695 212.722 247.695ZM194.511 247.695C194.608 252.819 202.225 252.797 202.294 247.695V217.809C202.222 212.691 194.604 212.702 194.511 217.809C194.511 217.809 194.511 247.695 194.511 247.695Z" fill="black"/>
</g>
<defs>
<clipPath id="clip0_1_22">
<rect width="334" height="334" fill="white"/>
</clipPath>
</defs>
</svg>
